<mxfile host="app.diagrams.net" modified="2022-03-31T05:49:51.947Z" agent="5.0 (Windows NT 10.0; Win64; x64) AppleWebKit/537.36 (KHTML, like Gecko) Chrome/99.0.4844.51 Safari/537.36" etag="xnNcTqlYxNR_uCSJVWs0" version="16.5.6" type="github">
  <diagram id="YGL4_LU6Wryx0pnacia-" name="Page-1">
    <mxGraphModel dx="1550" dy="844" grid="1" gridSize="10" guides="1" tooltips="1" connect="1" arrows="1" fold="1" page="1" pageScale="1" pageWidth="827" pageHeight="1169" math="0" shadow="0">
      <root>
        <mxCell id="0" />
        <mxCell id="1" parent="0" />
        <mxCell id="nmOukB2l_b2BBjUmnGJQ-1" value="项目" style="rounded=0;whiteSpace=wrap;html=1;" vertex="1" parent="1">
          <mxGeometry x="90" y="140" width="120" height="30" as="geometry" />
        </mxCell>
        <mxCell id="nmOukB2l_b2BBjUmnGJQ-2" value="" style="shape=curlyBracket;whiteSpace=wrap;html=1;rounded=1;" vertex="1" parent="1">
          <mxGeometry x="210" y="95" width="20" height="120" as="geometry" />
        </mxCell>
        <mxCell id="nmOukB2l_b2BBjUmnGJQ-9" value="" style="edgeStyle=orthogonalEdgeStyle;rounded=0;orthogonalLoop=1;jettySize=auto;html=1;" edge="1" parent="1" source="nmOukB2l_b2BBjUmnGJQ-4" target="nmOukB2l_b2BBjUmnGJQ-8">
          <mxGeometry relative="1" as="geometry" />
        </mxCell>
        <mxCell id="nmOukB2l_b2BBjUmnGJQ-4" value="子项1" style="rounded=0;whiteSpace=wrap;html=1;" vertex="1" parent="1">
          <mxGeometry x="230" y="95" width="120" height="25" as="geometry" />
        </mxCell>
        <mxCell id="nmOukB2l_b2BBjUmnGJQ-5" value="子项2" style="rounded=0;whiteSpace=wrap;html=1;" vertex="1" parent="1">
          <mxGeometry x="230" y="145" width="120" height="25" as="geometry" />
        </mxCell>
        <mxCell id="nmOukB2l_b2BBjUmnGJQ-6" value="子项3" style="rounded=0;whiteSpace=wrap;html=1;" vertex="1" parent="1">
          <mxGeometry x="230" y="190" width="120" height="25" as="geometry" />
        </mxCell>
        <mxCell id="nmOukB2l_b2BBjUmnGJQ-7" value="拿子项去签合同" style="text;html=1;align=center;verticalAlign=middle;resizable=0;points=[];autosize=1;strokeColor=none;fillColor=none;" vertex="1" parent="1">
          <mxGeometry x="220" y="40" width="100" height="20" as="geometry" />
        </mxCell>
        <mxCell id="nmOukB2l_b2BBjUmnGJQ-8" value="合同" style="rounded=0;whiteSpace=wrap;html=1;" vertex="1" parent="1">
          <mxGeometry x="480" y="95" width="120" height="25" as="geometry" />
        </mxCell>
        <mxCell id="nmOukB2l_b2BBjUmnGJQ-10" value="pro_code2" style="text;html=1;align=center;verticalAlign=middle;resizable=0;points=[];autosize=1;strokeColor=none;fillColor=none;" vertex="1" parent="1">
          <mxGeometry x="379" y="80" width="70" height="20" as="geometry" />
        </mxCell>
        <mxCell id="nmOukB2l_b2BBjUmnGJQ-15" value="" style="edgeStyle=orthogonalEdgeStyle;rounded=0;orthogonalLoop=1;jettySize=auto;html=1;fontSize=13;entryX=0.5;entryY=0;entryDx=0;entryDy=0;entryPerimeter=0;" edge="1" parent="1" source="nmOukB2l_b2BBjUmnGJQ-13" target="nmOukB2l_b2BBjUmnGJQ-16">
          <mxGeometry relative="1" as="geometry">
            <mxPoint x="190" y="410" as="targetPoint" />
          </mxGeometry>
        </mxCell>
        <mxCell id="nmOukB2l_b2BBjUmnGJQ-13" value="&lt;span style=&quot;font-size: 13px&quot;&gt;项目计划启动(rep_wplan),&lt;br&gt;将项目划分为项目以及子项&lt;/span&gt;" style="text;html=1;align=center;verticalAlign=middle;resizable=0;points=[];autosize=1;strokeColor=default;fillColor=none;fontSize=13;fontStyle=0" vertex="1" parent="1">
          <mxGeometry x="45" y="300" width="170" height="40" as="geometry" />
        </mxCell>
        <mxCell id="nmOukB2l_b2BBjUmnGJQ-18" value="" style="edgeStyle=orthogonalEdgeStyle;rounded=0;orthogonalLoop=1;jettySize=auto;html=1;fontSize=13;" edge="1" parent="1" source="nmOukB2l_b2BBjUmnGJQ-16" target="nmOukB2l_b2BBjUmnGJQ-17">
          <mxGeometry relative="1" as="geometry" />
        </mxCell>
        <mxCell id="nmOukB2l_b2BBjUmnGJQ-16" value="通过工程项目审批（rep_w）" style="text;html=1;align=center;verticalAlign=middle;resizable=0;points=[];autosize=1;strokeColor=default;fillColor=none;fontSize=13;" vertex="1" parent="1">
          <mxGeometry x="40" y="440" width="180" height="20" as="geometry" />
        </mxCell>
        <mxCell id="nmOukB2l_b2BBjUmnGJQ-20" value="" style="edgeStyle=orthogonalEdgeStyle;rounded=0;orthogonalLoop=1;jettySize=auto;html=1;fontSize=13;" edge="1" parent="1" source="nmOukB2l_b2BBjUmnGJQ-17" target="nmOukB2l_b2BBjUmnGJQ-19">
          <mxGeometry relative="1" as="geometry" />
        </mxCell>
        <mxCell id="nmOukB2l_b2BBjUmnGJQ-17" value="工程项目招标" style="text;html=1;align=center;verticalAlign=middle;resizable=0;points=[];autosize=1;strokeColor=default;fillColor=none;fontSize=13;" vertex="1" parent="1">
          <mxGeometry x="85" y="540" width="90" height="20" as="geometry" />
        </mxCell>
        <mxCell id="nmOukB2l_b2BBjUmnGJQ-19" value="工程项目合同审批" style="text;html=1;align=center;verticalAlign=middle;resizable=0;points=[];autosize=1;strokeColor=default;fillColor=none;fontSize=13;" vertex="1" parent="1">
          <mxGeometry x="70" y="640" width="120" height="20" as="geometry" />
        </mxCell>
      </root>
    </mxGraphModel>
  </diagram>
</mxfile>
